#!OML:ASF H:\Dans Jumps\Project 1\Capture day 1\Session 1\subject.ASF
:FULLY-SPECIFIED
:DEGREES
256
root 0.483886 16.5651 -3.61728 6.45879 -9.96923 0.109979
lowerback 8.61667 -0.824427 -1.23347
upperback 5.65125 -1.19629 1.6268
thorax 1.08387 -0.667561 2.46071
lowerneck -11.2657 2.68798 0.176975
upperneck 32.8439 4.64651 -2.79776
head 12.8925 1.66359 -0.468654
rclavicle 2.22639e-014 1.98785e-015
rhumerus -17.8677 -17.8867 -80.3711
rradius 20.3763
rwrist 39.6013
rhand -24.9677 -27.0837
rfingers 7.12502
rthumb 1.54278 -57.0578
lclavicle 2.22639e-014 1.98785e-015
lhumerus -2.58401 7.90578 83.8647
lradius 16.5541
lwrist 10.0614
lhand -30.2596 -9.00284
lfingers 7.12502
lthumb -3.56813 20.947
rfemur -36.3519 1.4899 18.4963
rtibia 52.1195
rfoot -19.8049 -3.32659
rtoes 9.02668
lfemur -34.1031 10.0405 -18.9039
ltibia 48.4104
lfoot -18.6236 4.61756
ltoes -3.20262
257
root 0.48447 16.5864 -3.61192 6.72365 -9.93668 0.082105
lowerback 8.61756 -0.885493 -1.18032
upperback 5.67659 -1.27386 1.66233
thorax 1.11347 -0.706141 2.473
lowerneck -11.2524 2.6938 0.146489
upperneck 32.8375 4.64694 -2.76091
head 12.8849 1.66434 -0.449392
rclavicle -1.00386e-014 -2.78299e-015
rhumerus -18.1044 -18.4945 -80.0418
rradius 20.0406
rwrist 40.1547
rhand -24.9403 -27.1509
rfingers 7.12502
rthumb 1.56925 -57.1248
lclavicle -1.00386e-014 -2.78299e-015
lhumerus -2.1744 8.50558 83.9808
lradius 16.3285
lwrist 9.56882
lhand -30.3275 -9.07511
lfingers 7.12502
lthumb -3.63373 20.8737
rfemur -36.4242 1.2908 18.5436
rtibia 51.7588
rfoot -19.6827 -3.21771
rtoes 8.95647
lfemur -34.215 10.1507 -18.9493
ltibia 48.0867
lfoot -18.5339 4.47304
ltoes -3.17675
258
root 0.484359 16.6053 -3.60587 6.96346 -9.86535 0.0562491
lowerback 8.62507 -0.948078 -1.14107
upperback 5.69547 -1.35429 1.70908
thorax 1.13353 -0.746516 2.50511
lowerneck -11.2419 2.69415 0.123154
upperneck 32.842 4.64161 -2.73377
head 12.883 1.66208 -0.435899
rclavicle 1.39149e-015 -4.77083e-015
rhumerus -18.3663 -19.104 -79.6833
rradius 19.7293
rwrist 40.6835
rhand -24.9157 -27.216
rfingers 7.12502
rthumb 1.59301 -57.1898
lclavicle 1.39149e-015 -4.77083e-015
lhumerus -1.78768 9.00489 84.1342
lradius 16.1386
lwrist 9.19923
lhand -30.3878 -9.18172
lfingers 7.12502
lthumb -3.692 20.766
rfemur -36.4885 1.0682 18.5964
rtibia 51.4437
rfoot -19.568 -3.14528
rtoes 8.87484
lfemur -34.3199 10.2282 -18.9917
ltibia 47.7959
lfoot -18.4563 4.34702
ltoes -3.19588
259
root 0.483544 16.6221 -3.59881 7.17045 -9.77083 0.0331714
lowerback 8.64213 -1.00881 -1.11796
upperback 5.71234 -1.43332 1.76344
thorax 1.14692 -0.786671 2.55433
lowerneck -11.2411 2.69082 0.107178
upperneck 32.8593 4.6318 -2.71194
head 12.8888 1.6578 -0.426231
rclavicle -3.97569e-015 1.59028e-015
rhumerus -18.6424 -19.7518 -79.2955
rradius 19.4233
rwrist 41.227
rhand -24.8891 -27.248
rfingers 7.12502
rthumb 1.61872 -57.2217
lclavicle -3.97569e-015 1.59028e-015
lhumerus -1.43214 9.38587 84.3154
lradius 16.0004
lwrist 8.94991
lhand -30.4396 -9.30228
lfingers 7.12502
lthumb -3.74195 20.6446
rfemur -36.5314 0.844152 18.6501
rtibia 51.1666
rfoot -19.465 -3.10447
rtoes 8.76838
lfemur -34.4028 10.2787 -19.0281
ltibia 47.5331
lfoot -18.3897 4.23753
ltoes -3.24083
260
root 0.482175 16.6372 -3.59037 7.34281 -9.66467 0.0143451
lowerback 8.66631 -1.06323 -1.10805
upperback 5.72804 -1.50486 1.81983
thorax 1.15533 -0.823412 2.61274
lowerneck -11.2454 2.68257 0.102158
upperneck 32.8847 4.6134 -2.69197
head 12.8993 1.65075 -0.420316
rclavicle -1.53064e-014 -1.27222e-014
rhumerus -18.9343 -20.4647 -78.8761
rradius 19.1087
rwrist 41.825
rhand -24.8895 -27.1983
rfingers 7.12502
rthumb 1.61833 -57.1719
lclavicle -1.53064e-014 -1.27222e-014
lhumerus -1.1169 9.63397 84.5169
lradius 15.9236
lwrist 8.80456
lhand -30.4778 -9.41261
lfingers 7.12502
lthumb -3.77883 20.5336
rfemur -36.5443 0.636368 18.699
rtibia 50.9172
rfoot -19.3733 -3.09804
rtoes 8.6293
lfemur -34.4557 10.3078 -19.0589
ltibia 47.2933
lfoot -18.3297 4.13817
ltoes -3.29258
261
root 0.480178 16.6511 -3.58066 7.48915 -9.54728 -0.00688177
lowerback 8.69038 -1.11468 -1.10281
upperback 5.74412 -1.57275 1.87676
thorax 1.16431 -0.858478 2.67411
lowerneck -11.2668 2.67134 0.102362
upperneck 32.9214 4.58808 -2.66515
head 12.918 1.64181 -0.413386
rclavicle -3.45885e-014 2.38542e-014
rhumerus -19.2358 -21.191 -78.4464
rradius 18.8071
rwrist 42.4363
rhand -24.8972 -27.095
rfingers 7.12502
rthumb 1.61087 -57.0687
lclavicle -3.45885e-014 2.38542e-014
lhumerus -0.842845 9.74579 84.7275
lradius 15.9139
lwrist 8.76141
lhand -30.5 -9.51515
lfingers 7.12502
lthumb -3.80035 20.4307
rfemur -36.5308 0.451422 18.7493
rtibia 50.6863
rfoot -19.2927 -3.1318
rtoes 8.43341
lfemur -34.4857 10.3111 -19.0745
ltibia 47.0748
lfoot -18.2716 4.03605
ltoes -3.30342
262
root 0.477752 16.6642 -3.56913 7.61242 -9.43095 -0.0322496
lowerback 8.70873 -1.16145 -1.09666
upperback 5.75648 -1.63434 1.9311
thorax 1.17221 -0.890272 2.73174
lowerneck -11.282 2.65696 0.0965153
upperneck 32.9571 4.55406 -2.62119
head 12.9341 1.63065 -0.40009
rclavicle -4.90998e-014 -1.11319e-014
rhumerus -19.5503 -21.9202 -78.0129
rradius 18.517
rwrist 43.0522
rhand -24.9045 -26.9692
rfingers 7.12502
rthumb 1.60383 -56.9429
lclavicle -4.90998e-014 -1.11319e-014
lhumerus -0.628044 9.73219 84.941
lradius 15.9814
lwrist 8.80058
lhand -30.5106 -9.58498
lfingers 7.12502
lthumb -3.81055 20.3607
rfemur -36.4893 0.300807 18.8007
rtibia 50.4672
rfoot -19.2241 -3.21376
rtoes 8.16315
lfemur -34.4893 10.2944 -19.0735
ltibia 46.8755
lfoot -18.2159 3.93022
ltoes -3.23715
263
root 0.474777 16.6765 -3.55649 7.72756 -9.3017 -0.0628655
lowerback 8.7172 -1.20823 -1.08485
upperback 5.75971 -1.69538 1.98268
thorax 1.17582 -0.921427 2.78318
lowerneck -11.2964 2.64075 0.0884132
upperneck 32.9924 4.51401 -2.56484
head 12.9493 1.61823 -0.382454
rclavicle -5.96354e-016 5.1684e-015
rhumerus -19.8832 -22.6001 -77.5893
rradius 18.2552
rwrist 43.6523
rhand -24.9427 -26.799
rfingers 7.12502
rthumb 1.5669 -56.773
lclavicle -5.96354e-016 5.1684e-015
lhumerus -0.463979 9.59469 85.1507
lradius 16.1129
lwrist 8.905
lhand -30.5 -9.60699
lfingers 7.12502
lthumb -3.80026 20.3389
rfemur -36.4368 0.175864 18.8564
rtibia 50.2587
rfoot -19.1674 -3.34869
rtoes 7.8217
lfemur -34.4888 10.2498 -19.057
ltibia 46.6949
lfoot -18.1555 3.81624
ltoes -3.09761
